<?xml version="1.0" encoding="UTF-8" standalone="no"?>
<svg
   xmlns:ns1="http://www.iki.fi/pav/software/textext/"
   xmlns:dc="http://purl.org/dc/elements/1.1/"
   xmlns:cc="http://creativecommons.org/ns#"
   xmlns:rdf="http://www.w3.org/1999/02/22-rdf-syntax-ns#"
   xmlns:svg="http://www.w3.org/2000/svg"
   xmlns="http://www.w3.org/2000/svg"
   xmlns:sodipodi="http://sodipodi.sourceforge.net/DTD/sodipodi-0.dtd"
   xmlns:inkscape="http://www.inkscape.org/namespaces/inkscape"
   width="65.461548mm"
   height="33.947701mm"
   viewBox="0 0 65.461548 33.947701"
   version="1.1"
   id="svg8"
   sodipodi:docname="detection.svg"
   inkscape:version="1.0.2 (e86c870879, 2021-01-15, custom)"
   inkscape:export-filename="/home/lucasc/Documenten/Universiteit/BEP/SML/PINNs/figures/detection.png"
   inkscape:export-xdpi="600.06"
   inkscape:export-ydpi="600.06">
  <defs
     id="defs2">
    <marker
       style="overflow:visible"
       id="marker1415"
       refX="0"
       refY="0"
       orient="auto"
       inkscape:stockid="Arrow1Mend"
       inkscape:isstock="true">
      <path
         transform="matrix(-0.4,0,0,-0.4,-4,0)"
         style="fill:#000000;fill-opacity:1;fill-rule:evenodd;stroke:#000000;stroke-width:1pt;stroke-opacity:1"
         d="M 0,0 5,-5 -12.5,0 5,5 Z"
         id="path1413" />
    </marker>
    <marker
       style="overflow:visible"
       id="Arrow1Mend"
       refX="0"
       refY="0"
       orient="auto"
       inkscape:stockid="Arrow1Mend"
       inkscape:isstock="true"
       inkscape:collect="always">
      <path
         transform="matrix(-0.4,0,0,-0.4,-4,0)"
         style="fill:#000000;fill-opacity:1;fill-rule:evenodd;stroke:#000000;stroke-width:1pt;stroke-opacity:1"
         d="M 0,0 5,-5 -12.5,0 5,5 Z"
         id="path846" />
    </marker>
    <marker
       style="overflow:visible"
       id="Arrow1Lend"
       refX="0"
       refY="0"
       orient="auto"
       inkscape:stockid="Arrow1Lend"
       inkscape:isstock="true">
      <path
         transform="matrix(-0.8,0,0,-0.8,-10,0)"
         style="fill:#000000;fill-opacity:1;fill-rule:evenodd;stroke:#000000;stroke-width:1pt;stroke-opacity:1"
         d="M 0,0 5,-5 -12.5,0 5,5 Z"
         id="path840" />
    </marker>
    <marker
       style="overflow:visible"
       id="Arrow1Mend-8"
       refX="0"
       refY="0"
       orient="auto"
       inkscape:stockid="Arrow1Mend"
       inkscape:isstock="true">
      <path
         transform="matrix(-0.4,0,0,-0.4,-4,0)"
         style="fill:#000000;fill-opacity:1;fill-rule:evenodd;stroke:#000000;stroke-width:1pt;stroke-opacity:1"
         d="M 0,0 5,-5 -12.5,0 5,5 Z"
         id="path846-0" />
    </marker>
  </defs>
  <sodipodi:namedview
     id="base"
     pagecolor="#ffffff"
     bordercolor="#666666"
     borderopacity="1.0"
     inkscape:pageopacity="0.0"
     inkscape:pageshadow="2"
     inkscape:zoom="3.959798"
     inkscape:cx="137.39162"
     inkscape:cy="82.206893"
     inkscape:document-units="mm"
     inkscape:current-layer="layer1"
     inkscape:document-rotation="0"
     showgrid="true"
     inkscape:window-width="1920"
     inkscape:window-height="1016"
     inkscape:window-x="0"
     inkscape:window-y="27"
     inkscape:window-maximized="1"
     fit-margin-top="0"
     fit-margin-left="0"
     fit-margin-right="0"
     fit-margin-bottom="0">
    <inkscape:grid
       type="xygrid"
       id="grid833"
       originx="-4.0018177"
       originy="-2.4473921" />
  </sodipodi:namedview>
  <metadata
     id="metadata5">
    <rdf:RDF>
      <cc:Work
         rdf:about="">
        <dc:format>image/svg+xml</dc:format>
        <dc:type
           rdf:resource="http://purl.org/dc/dcmitype/StillImage" />
        <dc:title></dc:title>
      </cc:Work>
    </rdf:RDF>
  </metadata>
  <g
     inkscape:label="Laag 1"
     inkscape:groupmode="layer"
     id="layer1"
     transform="translate(-4.0018177,-2.4473923)">
    <path
       style="fill:none;stroke:#000000;stroke-width:0.529167;stroke-linejoin:round;stroke-miterlimit:4;stroke-dasharray:none;marker-end:url(#Arrow1Mend)"
       d="M 10.583333,31.75 V 3.96875"
       id="path835" />
    <path
       style="fill:none;stroke:#000000;stroke-width:0.529167;stroke-linejoin:round;stroke-miterlimit:4;stroke-dasharray:none;marker-end:url(#Arrow1Mend-8)"
       d="M 10.31875,31.75 H 48.947917"
       id="path835-4"
       sodipodi:nodetypes="cc" />
    <g
       transform="matrix(0.529167,0,0,0.529167,4.00195,2.44726)"
       ns1:version="1.3.0"
       ns1:texconverter="pdflatex"
       ns1:pdfconverter="inkscape"
       ns1:text="$E$"
       ns1:preamble="/home/lucasc/Documenten/default_packages.tex"
       ns1:scale="1.5"
       ns1:alignment="middle center"
       ns1:jacobian_sqrt="0.529167"
       id="g1278">
      <defs
         id="id-e0064b1d-c389-4ddb-a843-2bbfebf72ae0">
        <g
           id="id-40cd1288-5ebd-4664-ad7a-76046050a725">
          <symbol
             overflow="visible"
             id="id-53146819-3e60-4d9f-bd6f-d0c59a5a0a40">
            <path
               style="stroke:none"
               d=""
               id="id-3508949f-5323-468f-8c93-4e03a9d6fb6d" />
          </symbol>
          <symbol
             overflow="visible"
             id="id-4542a8e6-8d9e-4d2d-8c0d-2ebd7eb40866">
            <path
               style="stroke:none"
               d="m 1.703125,-6.34375 -0.0625,0.265625 0.546875,0.03125 c 0.21875,0.015625 0.28125,0.125 0.203125,0.4375 l -1.09375,4.84375 c -0.078125,0.3125 -0.15625,0.421875 -0.375,0.4375 L 0.40625,-0.265625 0.34375,0 h 4.796875 l 0.46875,-1.609375 h -0.28125 c -0.46875,1.125 -0.875,1.28125 -2.015625,1.28125 -0.4375,0 -0.90625,-0.015625 -1.015625,-0.109375 C 2.15625,-0.546875 2.140625,-0.6875 2.25,-1.125 l 0.46875,-2 h 1.203125 c 0.796875,0 0.828125,0.1875 0.796875,0.78125 H 4.984375 L 5.40625,-4.25 H 5.140625 c -0.25,0.625 -0.34375,0.78125 -1.15625,0.78125 H 2.78125 L 3.3125,-5.765625 c 0.046875,-0.21875 0.09375,-0.265625 0.25,-0.265625 h 1.109375 c 1.15625,0 1.140625,0.390625 1.046875,1.21875 H 6 l 0.34375,-1.53125 z m 0,0"
               id="id-5e104bfd-d3e9-46e3-98ad-ebd06d41f274" />
          </symbol>
        </g>
      </defs>
      <g
         id="id-69acd820-489d-40b6-bdb1-a3a9be66dbdd"
         transform="translate(-149.056,-128.421)">
        <g
           style="fill:#000000;fill-opacity:1"
           id="id-ae18919e-80ee-4f4d-93fe-a281e57f7bd5">
          <g
             transform="translate(148.712,134.765)"
             id="g1313">
            <path
               style="stroke:none"
               d="m 1.703125,-6.34375 -0.0625,0.265625 0.546875,0.03125 c 0.21875,0.015625 0.28125,0.125 0.203125,0.4375 l -1.09375,4.84375 c -0.078125,0.3125 -0.15625,0.421875 -0.375,0.4375 L 0.40625,-0.265625 0.34375,0 h 4.796875 l 0.46875,-1.609375 h -0.28125 c -0.46875,1.125 -0.875,1.28125 -2.015625,1.28125 -0.4375,0 -0.90625,-0.015625 -1.015625,-0.109375 C 2.15625,-0.546875 2.140625,-0.6875 2.25,-1.125 l 0.46875,-2 h 1.203125 c 0.796875,0 0.828125,0.1875 0.796875,0.78125 H 4.984375 L 5.40625,-4.25 H 5.140625 c -0.25,0.625 -0.34375,0.78125 -1.15625,0.78125 H 2.78125 L 3.3125,-5.765625 c 0.046875,-0.21875 0.09375,-0.265625 0.25,-0.265625 h 1.109375 c 1.15625,0 1.140625,0.390625 1.046875,1.21875 H 6 l 0.34375,-1.53125 z m 0,0"
               id="id-cd9ae602-56ac-478c-bc3b-a206580772cf" />
          </g>
        </g>
      </g>
    </g>
    <path
       id="path1390"
       style="fill:none;stroke:#000000;stroke-width:0.264583px;stroke-linecap:butt;stroke-linejoin:miter;stroke-opacity:1"
       d="m 10.583333,31.75 c 2.519816,-1.121013 3.044551,-4.642879 5.866398,-5.305328 2.661485,-0.465888 5.711266,0.649385 8.04885,-1.13143 2.435159,-2.227958 4.584074,-5.362109 8.12433,-5.778791 2.392097,-0.341039 4.822324,-0.352808 7.224191,-0.540988 2.011569,0.102932 4.435915,0.401698 5.946391,-1.246719 1.316999,-2.121688 4.223046,-3.001187 4.817517,-5.615095"
       sodipodi:nodetypes="ccccccc" />
    <path
       style="fill:none;stroke:#000000;stroke-width:0.132292;stroke-linejoin:round;stroke-miterlimit:4;stroke-dasharray:0.132292, 0.132292;stroke-dashoffset:0"
       d="M 27.78125,18.520833 H 51.593749"
       id="path1401"
       sodipodi:nodetypes="cc" />
    <path
       style="fill:none;stroke:#000000;stroke-width:0.132292;stroke-linejoin:round;stroke-miterlimit:4;stroke-dasharray:0.132292, 0.132292;stroke-dashoffset:0"
       d="M 27.78125,19.84375 H 51.593749"
       id="path1403" />
    <path
       style="fill:none;stroke:#000000;stroke-width:0.132292;stroke-linejoin:round;stroke-miterlimit:4;stroke-dasharray:none;stroke-dashoffset:0;marker-end:url(#marker1415)"
       d="M 31.75,21.166666 H 43.656249"
       id="path1405" />
    <g
       transform="matrix(0.352778,0,0,0.352778,53.143502,17.936853)"
       ns1:version="1.3.0"
       ns1:texconverter="pdflatex"
       ns1:pdfconverter="inkscape"
       ns1:text="$r_{\\text{tol}}$"
       ns1:preamble="/home/lucasc/Documenten/default_packages.tex"
       ns1:scale="1.0"
       ns1:alignment="middle center"
       ns1:jacobian_sqrt="0.352778"
       id="g1524">
      <defs
         id="id-c318bc15-ef0a-44d4-989a-4bf3247aa8ce">
        <g
           id="id-7805f9b9-a550-474d-9e03-5763605a17ff">
          <symbol
             overflow="visible"
             id="id-d2c6424a-b5c8-4f64-9922-75874eabb7a2">
            <path
               style="stroke:none;stroke-width:0"
               d=""
               id="id-de391274-8c54-4f8c-a51b-8815d765f83f" />
          </symbol>
          <symbol
             overflow="visible"
             id="id-276b2370-5149-49f8-abc1-1b755ad75c28">
            <path
               style="stroke:none;stroke-width:0"
               d="m 1.75,0 c 0.15625,-0.59375 0.328125,-1.34375 0.46875,-1.875 0.328125,-1.203125 0.796875,-1.984375 1.140625,-1.984375 0.28125,0 0.34375,0.234375 0.640625,0.234375 0.234375,0 0.4375,-0.3125 0.4375,-0.578125 0,-0.25 -0.125,-0.40625 -0.421875,-0.40625 C 3.5,-4.609375 2.875,-4.03125 2.375,-3.03125 H 2.359375 L 2.765625,-4.5625 2.71875,-4.609375 1.140625,-4.34375 1.09375,-4.125 1.65625,-4.078125 C 1.875,-4.0625 1.859375,-3.9375 1.796875,-3.640625 l -0.84375,3.75 z m 0,0"
               id="id-5bcddbd3-fa8f-4866-8881-0c925b19491f" />
          </symbol>
          <symbol
             overflow="visible"
             id="id-999c70c9-7f1c-4509-9f96-151ef46e56b1">
            <path
               style="stroke:none;stroke-width:0"
               d=""
               id="id-42d5050b-7e4a-4e70-972d-f6ecd66e349d" />
          </symbol>
          <symbol
             overflow="visible"
             id="id-5864aaf3-96fb-4330-a81f-0afe775c8d23">
            <path
               style="stroke:none;stroke-width:0"
               d="m 2.265625,-3.140625 v -0.28125 H 1.375 v -0.875 H 1.171875 L 0.75,-3.421875 H 0.21875 v 0.28125 h 0.5 v 2.4375 c 0,0.703125 0.53125,0.78125 0.765625,0.78125 0.359375,0 0.703125,-0.171875 0.90625,-0.296875 L 2.328125,-0.375 C 2.15625,-0.296875 2,-0.28125 1.828125,-0.28125 1.59375,-0.28125 1.375,-0.453125 1.375,-0.96875 v -2.171875 z m 0,0"
               id="id-4f5e3409-f1a4-47f6-bb94-c1c18814b5d4" />
          </symbol>
          <symbol
             overflow="visible"
             id="id-6628b95b-52ac-474e-b639-a87de62d8dc2">
            <path
               style="stroke:none;stroke-width:0"
               d="m 2,-3.5 c -1.109375,0 -1.65625,0.65625 -1.65625,1.796875 0,1.125 0.546875,1.78125 1.65625,1.78125 1.140625,0 1.671875,-0.65625 1.671875,-1.78125 C 3.671875,-2.84375 3.140625,-3.5 2,-3.5 Z M 1.0625,-1.703125 C 1.0625,-2.671875 1.375,-3.25 2,-3.25 c 0.65625,0 0.953125,0.578125 0.953125,1.546875 C 2.953125,-0.75 2.65625,-0.15625 2,-0.15625 1.375,-0.15625 1.0625,-0.75 1.0625,-1.703125 Z m 0,0"
               id="id-52746c52-b3ec-4db5-bd1a-a26a1762f591" />
          </symbol>
          <symbol
             overflow="visible"
             id="id-fd03cd0f-417f-4459-9abd-4fd13a8a77e7">
            <path
               style="stroke:none;stroke-width:0"
               d="M 1.3125,-5.125 1.265625,-5.171875 0.171875,-5 v 0.171875 l 0.265625,0.03125 c 0.1875,0.015625 0.21875,0.0625 0.21875,0.328125 v 3.859375 c 0,0.359375 -0.015625,0.375 -0.515625,0.40625 V 0 H 1.84375 V -0.203125 C 1.34375,-0.234375 1.3125,-0.25 1.3125,-0.609375 Z m 0,0"
               id="id-a5db09b7-67a6-4e6f-9e2e-533cc97567c9" />
          </symbol>
        </g>
      </defs>
      <g
         id="id-3ae57b44-b74d-409c-ba30-05bff652d2b7"
         transform="translate(-149.665,-130.156)">
        <g
           style="fill:#000000;fill-opacity:1"
           id="id-4f5c733a-acc1-4789-bcf8-aa4f68e3dc4c">
          <g
             transform="translate(148.712,134.765)"
             id="g1508">
            <path
               style="stroke:none;stroke-width:0"
               d="m 1.75,0 c 0.15625,-0.59375 0.328125,-1.34375 0.46875,-1.875 0.328125,-1.203125 0.796875,-1.984375 1.140625,-1.984375 0.28125,0 0.34375,0.234375 0.640625,0.234375 0.234375,0 0.4375,-0.3125 0.4375,-0.578125 0,-0.25 -0.125,-0.40625 -0.421875,-0.40625 C 3.5,-4.609375 2.875,-4.03125 2.375,-3.03125 H 2.359375 L 2.765625,-4.5625 2.71875,-4.609375 1.140625,-4.34375 1.09375,-4.125 1.65625,-4.078125 C 1.875,-4.0625 1.859375,-3.9375 1.796875,-3.640625 l -0.84375,3.75 z m 0,0"
               id="id-84a546f3-af53-40f2-8a9b-ac491912396d" />
          </g>
        </g>
        <g
           style="fill:#000000;fill-opacity:1"
           id="id-10378c8b-d13b-4dc6-9f44-712db7d4400b">
          <g
             transform="translate(152.897,136.452)"
             id="g1512">
            <path
               style="stroke:none;stroke-width:0"
               d="m 2.265625,-3.140625 v -0.28125 H 1.375 v -0.875 H 1.171875 L 0.75,-3.421875 H 0.21875 v 0.28125 h 0.5 v 2.4375 c 0,0.703125 0.53125,0.78125 0.765625,0.78125 0.359375,0 0.703125,-0.171875 0.90625,-0.296875 L 2.328125,-0.375 C 2.15625,-0.296875 2,-0.28125 1.828125,-0.28125 1.59375,-0.28125 1.375,-0.453125 1.375,-0.96875 v -2.171875 z m 0,0"
               id="id-0313a7e0-c837-4e48-a839-419592e3c508" />
          </g>
        </g>
        <g
           style="fill:#000000;fill-opacity:1"
           id="id-9288727a-3d8a-4ab5-a5e1-2bb3f614517f">
          <g
             transform="translate(155.286,136.452)"
             id="g1516">
            <path
               style="stroke:none;stroke-width:0"
               d="m 2,-3.5 c -1.109375,0 -1.65625,0.65625 -1.65625,1.796875 0,1.125 0.546875,1.78125 1.65625,1.78125 1.140625,0 1.671875,-0.65625 1.671875,-1.78125 C 3.671875,-2.84375 3.140625,-3.5 2,-3.5 Z M 1.0625,-1.703125 C 1.0625,-2.671875 1.375,-3.25 2,-3.25 c 0.65625,0 0.953125,0.578125 0.953125,1.546875 C 2.953125,-0.75 2.65625,-0.15625 2,-0.15625 1.375,-0.15625 1.0625,-0.75 1.0625,-1.703125 Z m 0,0"
               id="id-46cbf441-b065-4e93-afdd-651b54a076d2" />
          </g>
        </g>
        <g
           style="fill:#000000;fill-opacity:1"
           id="id-f9976b04-311c-4a20-a0b8-369c1d71bfa9">
          <g
             transform="translate(159.313,136.452)"
             id="g1520">
            <path
               style="stroke:none;stroke-width:0"
               d="M 1.3125,-5.125 1.265625,-5.171875 0.171875,-5 v 0.171875 l 0.265625,0.03125 c 0.1875,0.015625 0.21875,0.0625 0.21875,0.328125 v 3.859375 c 0,0.359375 -0.015625,0.375 -0.515625,0.40625 V 0 H 1.84375 V -0.203125 C 1.34375,-0.234375 1.3125,-0.25 1.3125,-0.609375 Z m 0,0"
               id="id-8892ab13-eb67-4494-bf79-6d4a308de6b0" />
          </g>
        </g>
      </g>
    </g>
    <g
       transform="matrix(0.352778,0,0,0.352778,22.704889,6.4074128)"
       ns1:version="1.3.0"
       ns1:texconverter="pdflatex"
       ns1:pdfconverter="inkscape"
       ns1:text="for $n_\\text{steps}$ $|E|&lt;r_{\\text{tol}}\\cdot\\langle E \\rangle_{\\text{steps}} \\Rightarrow$ hit"
       ns1:preamble="/home/lucasc/Documenten/default_packages.tex"
       ns1:scale="1.0"
       ns1:alignment="middle center"
       ns1:jacobian_sqrt="0.352778"
       id="g2112">
      <defs
         id="id-37126ade-f345-4a1b-8a31-74671f726a1c">
        <g
           id="id-aa392ed0-726f-4755-b261-aa388bd335d4">
          <symbol
             overflow="visible"
             id="id-330286bb-99f7-41fe-b544-b00e19327ee7">
            <path
               style="stroke:none"
               d=""
               id="id-383b22f2-420c-460d-9a67-3b75b285d039" />
          </symbol>
          <symbol
             overflow="visible"
             id="id-eddea7c9-7198-4777-bb75-3f11c85cc9a7">
            <path
               style="stroke:none"
               d="m 1.84375,-4.125 h 1.125 V -4.5 h -1.125 L 1.8125,-5.515625 c -0.03125,-0.875 0.28125,-0.96875 0.4375,-0.96875 0.1875,0 0.390625,0.09375 0.625,0.625 0.046875,0.09375 0.109375,0.15625 0.25,0.15625 0.171875,0 0.4375,-0.15625 0.4375,-0.4375 0,-0.296875 -0.375,-0.671875 -1.109375,-0.671875 -0.515625,0 -0.9375,0.234375 -1.171875,0.578125 -0.203125,0.328125 -0.296875,0.8125 -0.296875,1.421875 V -4.5 H 0.28125 v 0.375 h 0.703125 v 3.328125 c 0,0.46875 -0.03125,0.484375 -0.6875,0.53125 V 0 H 2.71875 v -0.265625 c -0.84375,-0.03125 -0.875,-0.0625 -0.875,-0.515625 z m 0,0"
               id="id-4b09718b-5143-43d1-a728-0cd9966da194" />
          </symbol>
          <symbol
             overflow="visible"
             id="id-c6231b74-df63-49d7-b0cb-57875856dbc1">
            <path
               style="stroke:none"
               d="m 2.640625,-4.609375 c -1.46875,0 -2.1875,0.875 -2.1875,2.359375 0,1.484375 0.71875,2.359375 2.1875,2.359375 1.484375,0 2.203125,-0.875 2.203125,-2.359375 0,-1.484375 -0.71875,-2.359375 -2.203125,-2.359375 z M 1.40625,-2.25 c 0,-1.265625 0.40625,-2.03125 1.234375,-2.03125 0.859375,0 1.25,0.765625 1.25,2.03125 0,1.265625 -0.390625,2.03125 -1.25,2.03125 C 1.8125,-0.21875 1.40625,-0.984375 1.40625,-2.25 Z m 0,0"
               id="id-64d6cab3-19dd-47bb-85cd-89763f06a279" />
          </symbol>
          <symbol
             overflow="visible"
             id="id-eee34150-23a4-4355-b8c1-7b933e090335">
            <path
               style="stroke:none"
               d="M 1.734375,-4.609375 0.34375,-4.375 v 0.234375 L 0.6875,-4.09375 c 0.234375,0.03125 0.296875,0.078125 0.296875,0.40625 v 2.890625 c 0,0.46875 -0.046875,0.484375 -0.6875,0.53125 V 0 H 2.71875 v -0.265625 c -0.8125,-0.046875 -0.875,-0.0625 -0.875,-0.53125 V -2.9375 c 0,-0.71875 0.3125,-0.953125 0.515625,-0.953125 0.15625,0 0.3125,0.0625 0.578125,0.203125 0.0625,0.03125 0.140625,0.046875 0.1875,0.046875 0.21875,0 0.421875,-0.234375 0.421875,-0.515625 0,-0.203125 -0.140625,-0.453125 -0.5,-0.453125 -0.328125,0 -0.59375,0.203125 -1.203125,0.734375 z m 0,0"
               id="id-308bb407-ebce-4aae-a7f4-e3c9d88a9e8b" />
          </symbol>
          <symbol
             overflow="visible"
             id="id-e59b8ac3-8514-48e2-bd9c-4302402e146a">
            <path
               style="stroke:none"
               d="m 4.734375,-3.140625 c 0,-0.9375 -0.5,-1.46875 -1.34375,-1.46875 -0.671875,0 -1.09375,0.3125 -1.671875,0.703125 V -6.75 l -0.0625,-0.0625 -1.421875,0.234375 v 0.234375 l 0.34375,0.046875 C 0.8125,-6.265625 0.875,-6.21875 0.875,-5.890625 v 5.09375 c 0,0.453125 -0.046875,0.484375 -0.6875,0.53125 V 0 H 2.421875 V -0.265625 C 1.78125,-0.3125 1.734375,-0.34375 1.734375,-0.796875 V -2.9375 c 0,-0.234375 0.015625,-0.359375 0.078125,-0.5 0.203125,-0.375 0.625,-0.671875 1.109375,-0.671875 0.625,0 0.953125,0.34375 0.953125,1.140625 v 2.171875 c 0,0.453125 -0.046875,0.484375 -0.6875,0.53125 V 0 h 2.25 V -0.265625 C 4.796875,-0.3125 4.734375,-0.34375 4.734375,-0.796875 Z m 0,0"
               id="id-01bf7ed3-436a-4de6-aee0-8ca1fb4ec45d" />
          </symbol>
          <symbol
             overflow="visible"
             id="id-3f5659a6-2053-4dff-aeb5-c6e6947fbf84">
            <path
               style="stroke:none"
               d="m 0.34375,-4.375 v 0.234375 L 0.6875,-4.09375 c 0.234375,0.03125 0.296875,0.078125 0.296875,0.40625 v 2.890625 c 0,0.46875 -0.03125,0.484375 -0.6875,0.53125 V 0 H 2.53125 V -0.265625 C 1.875,-0.3125 1.84375,-0.328125 1.84375,-0.796875 v -3.75 l -0.0625,-0.0625 z m 1.0625,-2.1875 c -0.328125,0 -0.5625,0.25 -0.5625,0.578125 0,0.3125 0.234375,0.546875 0.5625,0.546875 0.34375,0 0.546875,-0.234375 0.5625,-0.546875 C 1.96875,-6.3125 1.75,-6.5625 1.40625,-6.5625 Z m 0,0"
               id="id-c258de80-9750-4e96-8919-3022c0200a7e" />
          </symbol>
          <symbol
             overflow="visible"
             id="id-3293af4b-899f-4f7d-81a6-45e7f6a5aec4">
            <path
               style="stroke:none"
               d="M 2.984375,-4.125 V -4.5 H 1.8125 V -5.65625 H 1.546875 L 0.984375,-4.5 H 0.28125 v 0.375 H 0.9375 v 3.1875 c 0,0.9375 0.703125,1.046875 1.03125,1.046875 0.46875,0 0.90625,-0.234375 1.171875,-0.40625 L 3.0625,-0.484375 c -0.21875,0.09375 -0.421875,0.125 -0.65625,0.125 -0.3125,0 -0.59375,-0.234375 -0.59375,-0.921875 V -4.125 Z m 0,0"
               id="id-1ad40639-f173-4879-91dc-faa26d20cda3" />
          </symbol>
          <symbol
             overflow="visible"
             id="id-35207cb9-020b-4c61-8e4a-5845614918ec">
            <path
               style="stroke:none"
               d=""
               id="id-08580fa3-a89d-47ac-83d2-c6e0eab7a49a" />
          </symbol>
          <symbol
             overflow="visible"
             id="id-e37c9473-5f64-4cb2-9434-663a98232cde">
            <path
               style="stroke:none"
               d="M 1.703125,0 C 1.96875,-0.9375 2.125,-1.4375 2.359375,-2 c 0.34375,-0.78125 1.234375,-2.125 1.96875,-2.125 0.328125,0 0.40625,0.296875 0.296875,0.65625 l -0.78125,2.6875 c -0.140625,0.5 -0.03125,0.890625 0.46875,0.890625 0.6875,0 1.203125,-0.625 1.515625,-1.3125 L 5.609375,-1.34375 C 5.4375,-1.015625 5.03125,-0.359375 4.78125,-0.359375 c -0.1875,0 -0.171875,-0.21875 -0.09375,-0.515625 L 5.40625,-3.28125 C 5.609375,-4 5.5,-4.609375 4.75,-4.609375 3.875,-4.609375 2.921875,-3.625 2.359375,-2.5625 H 2.34375 l 0.59375,-2 -0.046875,-0.046875 -1.6875,0.265625 -0.046875,0.21875 0.5625,0.046875 C 1.9375,-4.0625 1.9375,-3.9375 1.859375,-3.640625 l -0.953125,3.75 z m 0,0"
               id="id-33157018-80ad-440c-8951-91b98f64a2cc" />
          </symbol>
          <symbol
             overflow="visible"
             id="id-23c66e89-a29a-4d2b-9aad-ea843c4e46ce">
            <path
               style="stroke:none"
               d="m 1.703125,-6.34375 -0.0625,0.265625 0.546875,0.03125 c 0.21875,0.015625 0.28125,0.125 0.203125,0.4375 l -1.09375,4.84375 c -0.078125,0.3125 -0.15625,0.421875 -0.375,0.4375 L 0.40625,-0.265625 0.34375,0 h 4.796875 l 0.46875,-1.609375 h -0.28125 c -0.46875,1.125 -0.875,1.28125 -2.015625,1.28125 -0.4375,0 -0.90625,-0.015625 -1.015625,-0.109375 C 2.15625,-0.546875 2.140625,-0.6875 2.25,-1.125 l 0.46875,-2 h 1.203125 c 0.796875,0 0.828125,0.1875 0.796875,0.78125 H 4.984375 L 5.40625,-4.25 H 5.140625 c -0.25,0.625 -0.34375,0.78125 -1.15625,0.78125 H 2.78125 L 3.3125,-5.765625 c 0.046875,-0.21875 0.09375,-0.265625 0.25,-0.265625 h 1.109375 c 1.15625,0 1.140625,0.390625 1.046875,1.21875 H 6 l 0.34375,-1.53125 z m 0,0"
               id="id-7119afa3-41eb-4c7b-91e7-59f5467ff120" />
          </symbol>
          <symbol
             overflow="visible"
             id="id-810fea58-52ed-4b73-a773-43c3557aa9aa">
            <path
               style="stroke:none"
               d="m 1.75,0 c 0.15625,-0.59375 0.328125,-1.34375 0.46875,-1.875 0.328125,-1.203125 0.796875,-1.984375 1.140625,-1.984375 0.28125,0 0.34375,0.234375 0.640625,0.234375 0.234375,0 0.4375,-0.3125 0.4375,-0.578125 0,-0.25 -0.125,-0.40625 -0.421875,-0.40625 C 3.5,-4.609375 2.875,-4.03125 2.375,-3.03125 H 2.359375 L 2.765625,-4.5625 2.71875,-4.609375 1.140625,-4.34375 1.09375,-4.125 1.65625,-4.078125 C 1.875,-4.0625 1.859375,-3.9375 1.796875,-3.640625 l -0.84375,3.75 z m 0,0"
               id="id-ff70ad55-3ce4-4606-96a1-dd19ba0e1ad0" />
          </symbol>
          <symbol
             overflow="visible"
             id="id-7049058a-0aff-41a7-bc8c-48c217f57710">
            <path
               style="stroke:none"
               d=""
               id="id-3b1e4e1c-a41b-4891-9e2c-fed3478213ff" />
          </symbol>
          <symbol
             overflow="visible"
             id="id-d65b6f27-1b71-4eb0-8a86-340220b3e0f2">
            <path
               style="stroke:none"
               d="m 2.5625,-2.453125 v -0.8125 C 2.328125,-3.421875 1.96875,-3.5 1.65625,-3.5 c -0.75,0 -1.265625,0.359375 -1.265625,1.015625 0,0.578125 0.46875,0.84375 1.046875,1.015625 0.3125,0.09375 0.75,0.25 0.75,0.734375 0,0.34375 -0.265625,0.578125 -0.640625,0.578125 -0.5625,0 -0.875,-0.421875 -1.015625,-1 H 0.328125 l 0.0625,0.90625 c 0.25,0.21875 0.6875,0.328125 1.09375,0.328125 0.828125,0 1.296875,-0.4375 1.296875,-1.03125 0,-0.609375 -0.375,-0.890625 -1.09375,-1.109375 -0.28125,-0.09375 -0.734375,-0.234375 -0.734375,-0.625 0,-0.359375 0.265625,-0.5625 0.625,-0.5625 0.484375,0 0.734375,0.375 0.78125,0.796875 z m 0,0"
               id="id-8d92cf48-75fb-4e7a-8044-70ba4d058914" />
          </symbol>
          <symbol
             overflow="visible"
             id="id-a1d88ac1-da0e-45e8-8aa5-c079f61bef5c">
            <path
               style="stroke:none"
               d="m 2.265625,-3.140625 v -0.28125 H 1.375 v -0.875 H 1.171875 L 0.75,-3.421875 H 0.21875 v 0.28125 h 0.5 v 2.4375 c 0,0.703125 0.53125,0.78125 0.765625,0.78125 0.359375,0 0.703125,-0.171875 0.90625,-0.296875 L 2.328125,-0.375 C 2.15625,-0.296875 2,-0.28125 1.828125,-0.28125 1.59375,-0.28125 1.375,-0.453125 1.375,-0.96875 v -2.171875 z m 0,0"
               id="id-b7381daa-9f90-4dbf-987f-f88be14755f5" />
          </symbol>
          <symbol
             overflow="visible"
             id="id-034b3ee0-2952-4a52-84f2-0e7fcc35d1a4">
            <path
               style="stroke:none"
               d="m 3.078125,-1.828125 c 0.140625,0 0.28125,-0.046875 0.28125,-0.265625 C 3.359375,-2.515625 3.21875,-3.5 1.9375,-3.5 c -1.078125,0 -1.59375,0.78125 -1.59375,1.828125 0,1.09375 0.46875,1.765625 1.609375,1.75 0.765625,0 1.171875,-0.421875 1.359375,-0.984375 L 3.09375,-1.015625 c -0.1875,0.40625 -0.453125,0.75 -1,0.75 -0.875,0 -1.046875,-0.84375 -1.03125,-1.5625 z m -2,-0.265625 c 0,-0.296875 0.09375,-1.15625 0.828125,-1.15625 0.640625,0 0.71875,0.65625 0.71875,0.921875 0,0.140625 -0.046875,0.234375 -0.234375,0.234375 z m 0,0"
               id="id-7cbd8a6c-6f2f-4288-ac89-e28f96624aa1" />
          </symbol>
          <symbol
             overflow="visible"
             id="id-3e522408-c38c-40f1-966b-98b8901d7e5b">
            <path
               style="stroke:none"
               d="m 1.359375,-2.234375 c 0,-0.171875 0.015625,-0.28125 0.078125,-0.40625 0.171875,-0.3125 0.46875,-0.484375 0.828125,-0.484375 0.28125,0 0.90625,0.1875 0.90625,1.390625 0,1.015625 -0.328125,1.578125 -1.015625,1.578125 -0.359375,0 -0.640625,-0.1875 -0.75,-0.515625 C 1.359375,-0.796875 1.359375,-0.9375 1.359375,-1.09375 Z m -1.15625,-1.09375 v 0.171875 l 0.265625,0.046875 c 0.1875,0.015625 0.234375,0.0625 0.234375,0.3125 V 1 c 0,0.359375 -0.046875,0.359375 -0.53125,0.40625 v 0.203125 h 1.8125 V 1.40625 C 1.390625,1.359375 1.359375,1.359375 1.359375,1 V -0.078125 C 1.5,0 1.828125,0.078125 2.140625,0.078125 c 0.953125,0 1.75,-0.421875 1.75,-1.859375 0,-0.5 -0.078125,-1.71875 -1.359375,-1.71875 -0.5,0 -0.90625,0.34375 -1.171875,0.515625 L 1.265625,-3.5 Z m 0,0"
               id="id-a80cf9c5-7341-4fca-ac4a-89b6c2f9be04" />
          </symbol>
          <symbol
             overflow="visible"
             id="id-70693083-563b-49e3-8821-4317b926e1a2">
            <path
               style="stroke:none"
               d="m 2,-3.5 c -1.109375,0 -1.65625,0.65625 -1.65625,1.796875 0,1.125 0.546875,1.78125 1.65625,1.78125 1.140625,0 1.671875,-0.65625 1.671875,-1.78125 C 3.671875,-2.84375 3.140625,-3.5 2,-3.5 Z M 1.0625,-1.703125 C 1.0625,-2.671875 1.375,-3.25 2,-3.25 c 0.65625,0 0.953125,0.578125 0.953125,1.546875 C 2.953125,-0.75 2.65625,-0.15625 2,-0.15625 1.375,-0.15625 1.0625,-0.75 1.0625,-1.703125 Z m 0,0"
               id="id-1ab88568-70aa-495a-8bd2-f50fade556da" />
          </symbol>
          <symbol
             overflow="visible"
             id="id-27875a37-2630-4aa5-a560-3b567549bba3">
            <path
               style="stroke:none"
               d="M 1.3125,-5.125 1.265625,-5.171875 0.171875,-5 v 0.171875 l 0.265625,0.03125 c 0.1875,0.015625 0.21875,0.0625 0.21875,0.328125 v 3.859375 c 0,0.359375 -0.015625,0.375 -0.515625,0.40625 V 0 H 1.84375 V -0.203125 C 1.34375,-0.234375 1.3125,-0.25 1.3125,-0.609375 Z m 0,0"
               id="id-e37d9ad6-095e-43c1-95cb-fd96d9c015c0" />
          </symbol>
          <symbol
             overflow="visible"
             id="id-8ba557af-8d7f-4ee1-8266-a2c269a02e93">
            <path
               style="stroke:none"
               d=""
               id="id-b51eb525-fd33-4327-bff7-89f9a67f122a" />
          </symbol>
          <symbol
             overflow="visible"
             id="id-b5c34065-7eef-4d84-a6ac-ff856a1ce9e5">
            <path
               style="stroke:none"
               d="M 1.015625,-6.484375 V 1.3125 h 0.53125 v -7.796875 z m 0,0"
               id="id-a8a8fdc3-2d04-410b-bce8-44509afb27fa" />
          </symbol>
          <symbol
             overflow="visible"
             id="id-8565c256-6a13-4159-8170-f98feb44b5cb">
            <path
               style="stroke:none"
               d="M 5.828125,-0.6875 1.59375,-2.59375 5.828125,-4.484375 V -5.0625 L 0.78125,-2.90625 v 0.640625 l 5.046875,2.15625 z m 0,0"
               id="id-1411518c-220b-41e7-baec-b0a5f9799494" />
          </symbol>
          <symbol
             overflow="visible"
             id="id-d387c745-383d-4f0c-921c-c57ff48d95d1">
            <path
               style="stroke:none"
               d="m 0.734375,-2.59375 c 0,0.328125 0.25,0.578125 0.578125,0.578125 0.3125,0 0.578125,-0.25 0.578125,-0.578125 0,-0.3125 -0.265625,-0.578125 -0.578125,-0.578125 -0.328125,0 -0.578125,0.265625 -0.578125,0.578125 z m 0,0"
               id="id-662ed334-0387-4c59-aa03-dfd9007db9b4" />
          </symbol>
          <symbol
             overflow="visible"
             id="id-5f71cb9f-386e-448a-a19e-314a4d6d256d">
            <path
               style="stroke:none"
               d="M 3.28125,-6.28125 2.796875,-6.5 l -1.875,3.90625 1.875,3.921875 L 3.28125,1.09375 1.515625,-2.59375 Z m 0,0"
               id="id-a86e67ce-aadb-463e-bd7b-7a709e3d7f15" />
          </symbol>
          <symbol
             overflow="visible"
             id="id-fc5c8927-ab40-4620-a91b-eef3ed803d04">
            <path
               style="stroke:none"
               d="M 2.0625,-2.59375 0.296875,1.09375 0.78125,1.328125 2.65625,-2.59375 0.78125,-6.5 0.296875,-6.28125 Z m 0,0"
               id="id-b4c233e5-7363-47bc-9a52-7d6eb6197f6b" />
          </symbol>
          <symbol
             overflow="visible"
             id="id-3e658a6c-682d-4c39-aedf-55c89a8a99fe">
            <path
               style="stroke:none"
               d="m 6.515625,-3.328125 0.703125,0.75 -0.6875,0.734375 h -5.875 v 0.53125 h 5.421875 l -0.734375,0.78125 0.203125,0.203125 c 1.046875,-0.9375 2.234375,-1.84375 2.921875,-2.125 V -2.71875 C 7.828125,-2.96875 6.625,-3.875 5.515625,-4.859375 l -0.171875,0.21875 0.71875,0.78125 H 0.65625 v 0.53125 z m 0,0"
               id="id-f10abee0-6948-4cbf-ae40-74ed9b16cf3c" />
          </symbol>
        </g>
      </defs>
      <g
         id="id-2965e13a-294f-49fa-b028-6d769b491da3"
         transform="translate(-148.993,-127.953)">
        <g
           style="fill:#000000;fill-opacity:1"
           id="id-dac03be1-74bf-40c4-90eb-2e6a3ec14594">
          <g
             transform="translate(148.712,134.765)"
             id="g2403">
            <path
               style="stroke:none"
               d="m 1.84375,-4.125 h 1.125 V -4.5 h -1.125 L 1.8125,-5.515625 c -0.03125,-0.875 0.28125,-0.96875 0.4375,-0.96875 0.1875,0 0.390625,0.09375 0.625,0.625 0.046875,0.09375 0.109375,0.15625 0.25,0.15625 0.171875,0 0.4375,-0.15625 0.4375,-0.4375 0,-0.296875 -0.375,-0.671875 -1.109375,-0.671875 -0.515625,0 -0.9375,0.234375 -1.171875,0.578125 -0.203125,0.328125 -0.296875,0.8125 -0.296875,1.421875 V -4.5 H 0.28125 v 0.375 h 0.703125 v 3.328125 c 0,0.46875 -0.03125,0.484375 -0.6875,0.53125 V 0 H 2.71875 v -0.265625 c -0.84375,-0.03125 -0.875,-0.0625 -0.875,-0.515625 z m 0,0"
               id="id-a4673837-0eaa-4a28-863e-4f3a0b82be98" />
          </g>
          <g
             transform="translate(151.636,134.765)"
             id="g2406">
            <path
               style="stroke:none"
               d="m 2.640625,-4.609375 c -1.46875,0 -2.1875,0.875 -2.1875,2.359375 0,1.484375 0.71875,2.359375 2.1875,2.359375 1.484375,0 2.203125,-0.875 2.203125,-2.359375 0,-1.484375 -0.71875,-2.359375 -2.203125,-2.359375 z M 1.40625,-2.25 c 0,-1.265625 0.40625,-2.03125 1.234375,-2.03125 0.859375,0 1.25,0.765625 1.25,2.03125 0,1.265625 -0.390625,2.03125 -1.25,2.03125 C 1.8125,-0.21875 1.40625,-0.984375 1.40625,-2.25 Z m 0,0"
               id="id-9b30973a-e3a7-4704-9f53-75081abcce88" />
          </g>
          <g
             transform="translate(156.924,134.765)"
             id="g2409">
            <path
               style="stroke:none"
               d="M 1.734375,-4.609375 0.34375,-4.375 v 0.234375 L 0.6875,-4.09375 c 0.234375,0.03125 0.296875,0.078125 0.296875,0.40625 v 2.890625 c 0,0.46875 -0.046875,0.484375 -0.6875,0.53125 V 0 H 2.71875 v -0.265625 c -0.8125,-0.046875 -0.875,-0.0625 -0.875,-0.53125 V -2.9375 c 0,-0.71875 0.3125,-0.953125 0.515625,-0.953125 0.15625,0 0.3125,0.0625 0.578125,0.203125 0.0625,0.03125 0.140625,0.046875 0.1875,0.046875 0.21875,0 0.421875,-0.234375 0.421875,-0.515625 0,-0.203125 -0.140625,-0.453125 -0.5,-0.453125 -0.328125,0 -0.59375,0.203125 -1.203125,0.734375 z m 0,0"
               id="id-368386ca-c8e2-446e-9816-d5d1fabde803" />
          </g>
        </g>
        <g
           style="fill:#000000;fill-opacity:1"
           id="id-44171601-f611-41ad-8b28-4f796b99ff67">
          <g
             transform="translate(162.55,134.765)"
             id="g2413">
            <path
               style="stroke:none"
               d="M 1.703125,0 C 1.96875,-0.9375 2.125,-1.4375 2.359375,-2 c 0.34375,-0.78125 1.234375,-2.125 1.96875,-2.125 0.328125,0 0.40625,0.296875 0.296875,0.65625 l -0.78125,2.6875 c -0.140625,0.5 -0.03125,0.890625 0.46875,0.890625 0.6875,0 1.203125,-0.625 1.515625,-1.3125 L 5.609375,-1.34375 C 5.4375,-1.015625 5.03125,-0.359375 4.78125,-0.359375 c -0.1875,0 -0.171875,-0.21875 -0.09375,-0.515625 L 5.40625,-3.28125 C 5.609375,-4 5.5,-4.609375 4.75,-4.609375 3.875,-4.609375 2.921875,-3.625 2.359375,-2.5625 H 2.34375 l 0.59375,-2 -0.046875,-0.046875 -1.6875,0.265625 -0.046875,0.21875 0.5625,0.046875 C 1.9375,-4.0625 1.9375,-3.9375 1.859375,-3.640625 l -0.953125,3.75 z m 0,0"
               id="id-93c2c19d-d0cb-40d9-a594-30c00a043f7f" />
          </g>
        </g>
        <g
           style="fill:#000000;fill-opacity:1"
           id="id-c3e092da-49cf-4d14-af73-be65859b3503">
          <g
             transform="translate(168.518,136.259)"
             id="g2417">
            <path
               style="stroke:none"
               d="m 2.5625,-2.453125 v -0.8125 C 2.328125,-3.421875 1.96875,-3.5 1.65625,-3.5 c -0.75,0 -1.265625,0.359375 -1.265625,1.015625 0,0.578125 0.46875,0.84375 1.046875,1.015625 0.3125,0.09375 0.75,0.25 0.75,0.734375 0,0.34375 -0.265625,0.578125 -0.640625,0.578125 -0.5625,0 -0.875,-0.421875 -1.015625,-1 H 0.328125 l 0.0625,0.90625 c 0.25,0.21875 0.6875,0.328125 1.09375,0.328125 0.828125,0 1.296875,-0.4375 1.296875,-1.03125 0,-0.609375 -0.375,-0.890625 -1.09375,-1.109375 -0.28125,-0.09375 -0.734375,-0.234375 -0.734375,-0.625 0,-0.359375 0.265625,-0.5625 0.625,-0.5625 0.484375,0 0.734375,0.375 0.78125,0.796875 z m 0,0"
               id="id-670326c5-b850-40a7-916e-66053c7c21d6" />
          </g>
          <g
             transform="translate(171.555,136.259)"
             id="g2420">
            <path
               style="stroke:none"
               d="m 2.265625,-3.140625 v -0.28125 H 1.375 v -0.875 H 1.171875 L 0.75,-3.421875 H 0.21875 v 0.28125 h 0.5 v 2.4375 c 0,0.703125 0.53125,0.78125 0.765625,0.78125 0.359375,0 0.703125,-0.171875 0.90625,-0.296875 L 2.328125,-0.375 C 2.15625,-0.296875 2,-0.28125 1.828125,-0.28125 1.59375,-0.28125 1.375,-0.453125 1.375,-0.96875 v -2.171875 z m 0,0"
               id="id-ef3c02b7-7e1a-4724-b475-45eecd0bb8b3" />
          </g>
        </g>
        <g
           style="fill:#000000;fill-opacity:1"
           id="id-fa6a9844-805f-4c6b-b0b4-0157328907da">
          <g
             transform="translate(173.944,136.259)"
             id="g2424">
            <path
               style="stroke:none"
               d="m 3.078125,-1.828125 c 0.140625,0 0.28125,-0.046875 0.28125,-0.265625 C 3.359375,-2.515625 3.21875,-3.5 1.9375,-3.5 c -1.078125,0 -1.59375,0.78125 -1.59375,1.828125 0,1.09375 0.46875,1.765625 1.609375,1.75 0.765625,0 1.171875,-0.421875 1.359375,-0.984375 L 3.09375,-1.015625 c -0.1875,0.40625 -0.453125,0.75 -1,0.75 -0.875,0 -1.046875,-0.84375 -1.03125,-1.5625 z m -2,-0.265625 c 0,-0.296875 0.09375,-1.15625 0.828125,-1.15625 0.640625,0 0.71875,0.65625 0.71875,0.921875 0,0.140625 -0.046875,0.234375 -0.234375,0.234375 z m 0,0"
               id="id-c52bbb9d-c701-4c48-b69b-25bdab29e064" />
          </g>
          <g
             transform="translate(177.525,136.259)"
             id="g2427">
            <path
               style="stroke:none"
               d="m 1.359375,-2.234375 c 0,-0.171875 0.015625,-0.28125 0.078125,-0.40625 0.171875,-0.3125 0.46875,-0.484375 0.828125,-0.484375 0.28125,0 0.90625,0.1875 0.90625,1.390625 0,1.015625 -0.328125,1.578125 -1.015625,1.578125 -0.359375,0 -0.640625,-0.1875 -0.75,-0.515625 C 1.359375,-0.796875 1.359375,-0.9375 1.359375,-1.09375 Z m -1.15625,-1.09375 v 0.171875 l 0.265625,0.046875 c 0.1875,0.015625 0.234375,0.0625 0.234375,0.3125 V 1 c 0,0.359375 -0.046875,0.359375 -0.53125,0.40625 v 0.203125 h 1.8125 V 1.40625 C 1.390625,1.359375 1.359375,1.359375 1.359375,1 V -0.078125 C 1.5,0 1.828125,0.078125 2.140625,0.078125 c 0.953125,0 1.75,-0.421875 1.75,-1.859375 0,-0.5 -0.078125,-1.71875 -1.359375,-1.71875 -0.5,0 -0.90625,0.34375 -1.171875,0.515625 L 1.265625,-3.5 Z m 0,0"
               id="id-59f449fd-9e84-481a-bc8d-5e4712438f7b" />
          </g>
          <g
             transform="translate(181.76,136.259)"
             id="g2430">
            <path
               style="stroke:none"
               d="m 2.5625,-2.453125 v -0.8125 C 2.328125,-3.421875 1.96875,-3.5 1.65625,-3.5 c -0.75,0 -1.265625,0.359375 -1.265625,1.015625 0,0.578125 0.46875,0.84375 1.046875,1.015625 0.3125,0.09375 0.75,0.25 0.75,0.734375 0,0.34375 -0.265625,0.578125 -0.640625,0.578125 -0.5625,0 -0.875,-0.421875 -1.015625,-1 H 0.328125 l 0.0625,0.90625 c 0.25,0.21875 0.6875,0.328125 1.09375,0.328125 0.828125,0 1.296875,-0.4375 1.296875,-1.03125 0,-0.609375 -0.375,-0.890625 -1.09375,-1.109375 -0.28125,-0.09375 -0.734375,-0.234375 -0.734375,-0.625 0,-0.359375 0.265625,-0.5625 0.625,-0.5625 0.484375,0 0.734375,0.375 0.78125,0.796875 z m 0,0"
               id="id-dc7daf45-354a-4c1d-b4b1-6738c43c0c01" />
          </g>
        </g>
        <g
           style="fill:#000000;fill-opacity:1"
           id="id-e3d84399-5761-4968-afe3-e6ae4c921757">
          <g
             transform="translate(187.357,134.765)"
             id="g2434">
            <path
               style="stroke:none"
               d="M 1.015625,-6.484375 V 1.3125 h 0.53125 v -7.796875 z m 0,0"
               id="id-592c4505-47a8-40f9-9fb7-b9297c1f09ce" />
          </g>
        </g>
        <g
           style="fill:#000000;fill-opacity:1"
           id="id-4a9ed73b-fbcd-4bcb-90fa-a8b0207dc8bd">
          <g
             transform="translate(189.908,134.765)"
             id="g2438">
            <path
               style="stroke:none"
               d="m 1.703125,-6.34375 -0.0625,0.265625 0.546875,0.03125 c 0.21875,0.015625 0.28125,0.125 0.203125,0.4375 l -1.09375,4.84375 c -0.078125,0.3125 -0.15625,0.421875 -0.375,0.4375 L 0.40625,-0.265625 0.34375,0 h 4.796875 l 0.46875,-1.609375 h -0.28125 c -0.46875,1.125 -0.875,1.28125 -2.015625,1.28125 -0.4375,0 -0.90625,-0.015625 -1.015625,-0.109375 C 2.15625,-0.546875 2.140625,-0.6875 2.25,-1.125 l 0.46875,-2 h 1.203125 c 0.796875,0 0.828125,0.1875 0.796875,0.78125 H 4.984375 L 5.40625,-4.25 H 5.140625 c -0.25,0.625 -0.34375,0.78125 -1.15625,0.78125 H 2.78125 L 3.3125,-5.765625 c 0.046875,-0.21875 0.09375,-0.265625 0.25,-0.265625 h 1.109375 c 1.15625,0 1.140625,0.390625 1.046875,1.21875 H 6 l 0.34375,-1.53125 z m 0,0"
               id="id-93ea35a6-9607-4fde-8cee-acba324c9601" />
          </g>
        </g>
        <g
           style="fill:#000000;fill-opacity:1"
           id="id-82aa77cb-e129-471d-bcb0-0dfe49540cf5">
          <g
             transform="translate(196.324,134.765)"
             id="g2442">
            <path
               style="stroke:none"
               d="M 1.015625,-6.484375 V 1.3125 h 0.53125 v -7.796875 z m 0,0"
               id="id-485acb87-4bea-4134-85b1-99f7d6100bca" />
          </g>
        </g>
        <g
           style="fill:#000000;fill-opacity:1"
           id="id-d7f09cff-9e4c-4806-99c9-a2ba572550cd">
          <g
             transform="translate(200.577,134.765)"
             id="g2446">
            <path
               style="stroke:none"
               d="M 5.828125,-0.6875 1.59375,-2.59375 5.828125,-4.484375 V -5.0625 L 0.78125,-2.90625 v 0.640625 l 5.046875,2.15625 z m 0,0"
               id="id-359080a4-0bf1-4743-9cc6-a62f2d2590a8" />
          </g>
        </g>
        <g
           style="fill:#000000;fill-opacity:1"
           id="id-2d6fcc5f-3644-4966-8a96-36f5ffae2320">
          <g
             transform="translate(208.879,134.765)"
             id="g2450">
            <path
               style="stroke:none"
               d="m 1.75,0 c 0.15625,-0.59375 0.328125,-1.34375 0.46875,-1.875 0.328125,-1.203125 0.796875,-1.984375 1.140625,-1.984375 0.28125,0 0.34375,0.234375 0.640625,0.234375 0.234375,0 0.4375,-0.3125 0.4375,-0.578125 0,-0.25 -0.125,-0.40625 -0.421875,-0.40625 C 3.5,-4.609375 2.875,-4.03125 2.375,-3.03125 H 2.359375 L 2.765625,-4.5625 2.71875,-4.609375 1.140625,-4.34375 1.09375,-4.125 1.65625,-4.078125 C 1.875,-4.0625 1.859375,-3.9375 1.796875,-3.640625 l -0.84375,3.75 z m 0,0"
               id="id-b0199a10-2b23-4e12-97ba-63c1868d37dc" />
          </g>
        </g>
        <g
           style="fill:#000000;fill-opacity:1"
           id="id-cbf7616c-4cf0-4e9b-a6b0-957e75e4c132">
          <g
             transform="translate(213.063,136.452)"
             id="g2454">
            <path
               style="stroke:none"
               d="m 2.265625,-3.140625 v -0.28125 H 1.375 v -0.875 H 1.171875 L 0.75,-3.421875 H 0.21875 v 0.28125 h 0.5 v 2.4375 c 0,0.703125 0.53125,0.78125 0.765625,0.78125 0.359375,0 0.703125,-0.171875 0.90625,-0.296875 L 2.328125,-0.375 C 2.15625,-0.296875 2,-0.28125 1.828125,-0.28125 1.59375,-0.28125 1.375,-0.453125 1.375,-0.96875 v -2.171875 z m 0,0"
               id="id-d16b369a-3ae4-4207-b828-609e1f9ac022" />
          </g>
        </g>
        <g
           style="fill:#000000;fill-opacity:1"
           id="id-69dbbeda-4271-4eb2-ad51-be526a0cfd86">
          <g
             transform="translate(215.452,136.452)"
             id="g2458">
            <path
               style="stroke:none"
               d="m 2,-3.5 c -1.109375,0 -1.65625,0.65625 -1.65625,1.796875 0,1.125 0.546875,1.78125 1.65625,1.78125 1.140625,0 1.671875,-0.65625 1.671875,-1.78125 C 3.671875,-2.84375 3.140625,-3.5 2,-3.5 Z M 1.0625,-1.703125 C 1.0625,-2.671875 1.375,-3.25 2,-3.25 c 0.65625,0 0.953125,0.578125 0.953125,1.546875 C 2.953125,-0.75 2.65625,-0.15625 2,-0.15625 1.375,-0.15625 1.0625,-0.75 1.0625,-1.703125 Z m 0,0"
               id="id-6d5177ab-c6b4-4a9d-a71d-745f574ad906" />
          </g>
        </g>
        <g
           style="fill:#000000;fill-opacity:1"
           id="id-975d742d-5aea-459f-9451-b50acddc1077">
          <g
             transform="translate(219.479,136.452)"
             id="g2462">
            <path
               style="stroke:none"
               d="M 1.3125,-5.125 1.265625,-5.171875 0.171875,-5 v 0.171875 l 0.265625,0.03125 c 0.1875,0.015625 0.21875,0.0625 0.21875,0.328125 v 3.859375 c 0,0.359375 -0.015625,0.375 -0.515625,0.40625 V 0 H 1.84375 V -0.203125 C 1.34375,-0.234375 1.3125,-0.25 1.3125,-0.609375 Z m 0,0"
               id="id-b15d304a-068f-4595-908c-b0bb97aa6d2c" />
          </g>
        </g>
        <g
           style="fill:#000000;fill-opacity:1"
           id="id-3db2e13c-51ef-44ac-b3ee-4ed58101971f">
          <g
             transform="translate(223.138,134.765)"
             id="g2466">
            <path
               style="stroke:none"
               d="m 0.734375,-2.59375 c 0,0.328125 0.25,0.578125 0.578125,0.578125 0.3125,0 0.578125,-0.25 0.578125,-0.578125 0,-0.3125 -0.265625,-0.578125 -0.578125,-0.578125 -0.328125,0 -0.578125,0.265625 -0.578125,0.578125 z m 0,0"
               id="id-cdd2e90a-1093-46b0-ac71-0d3d29e54ed6" />
          </g>
        </g>
        <g
           style="fill:#000000;fill-opacity:1"
           id="id-b2858591-a153-42fc-ac86-fb1faf26e5db">
          <g
             transform="translate(226.905,134.765)"
             id="g2470">
            <path
               style="stroke:none"
               d="M 3.28125,-6.28125 2.796875,-6.5 l -1.875,3.90625 1.875,3.921875 L 3.28125,1.09375 1.515625,-2.59375 Z m 0,0"
               id="id-e3517f75-c32b-456b-ad8a-3217edcac903" />
          </g>
        </g>
        <g
           style="fill:#000000;fill-opacity:1"
           id="id-8797b777-9b1d-422a-bfb9-47f1f5ec03a6">
          <g
             transform="translate(230.472,134.765)"
             id="g2474">
            <path
               style="stroke:none"
               d="m 1.703125,-6.34375 -0.0625,0.265625 0.546875,0.03125 c 0.21875,0.015625 0.28125,0.125 0.203125,0.4375 l -1.09375,4.84375 c -0.078125,0.3125 -0.15625,0.421875 -0.375,0.4375 L 0.40625,-0.265625 0.34375,0 h 4.796875 l 0.46875,-1.609375 h -0.28125 c -0.46875,1.125 -0.875,1.28125 -2.015625,1.28125 -0.4375,0 -0.90625,-0.015625 -1.015625,-0.109375 C 2.15625,-0.546875 2.140625,-0.6875 2.25,-1.125 l 0.46875,-2 h 1.203125 c 0.796875,0 0.828125,0.1875 0.796875,0.78125 H 4.984375 L 5.40625,-4.25 H 5.140625 c -0.25,0.625 -0.34375,0.78125 -1.15625,0.78125 H 2.78125 L 3.3125,-5.765625 c 0.046875,-0.21875 0.09375,-0.265625 0.25,-0.265625 h 1.109375 c 1.15625,0 1.140625,0.390625 1.046875,1.21875 H 6 l 0.34375,-1.53125 z m 0,0"
               id="id-a227f581-f205-4290-9774-db030894f11a" />
          </g>
        </g>
        <g
           style="fill:#000000;fill-opacity:1"
           id="id-b9f9fb81-3fcb-4945-b09b-2dd3e2b5d31f">
          <g
             transform="translate(236.888,134.765)"
             id="g2478">
            <path
               style="stroke:none"
               d="M 2.0625,-2.59375 0.296875,1.09375 0.78125,1.328125 2.65625,-2.59375 0.78125,-6.5 0.296875,-6.28125 Z m 0,0"
               id="id-84963887-a0d0-4815-8e60-ec492250721a" />
          </g>
        </g>
        <g
           style="fill:#000000;fill-opacity:1"
           id="id-c022cc92-2cd6-4be3-bfb4-7fcd2abd3031">
          <g
             transform="translate(240.455,136.259)"
             id="g2482">
            <path
               style="stroke:none"
               d="m 2.5625,-2.453125 v -0.8125 C 2.328125,-3.421875 1.96875,-3.5 1.65625,-3.5 c -0.75,0 -1.265625,0.359375 -1.265625,1.015625 0,0.578125 0.46875,0.84375 1.046875,1.015625 0.3125,0.09375 0.75,0.25 0.75,0.734375 0,0.34375 -0.265625,0.578125 -0.640625,0.578125 -0.5625,0 -0.875,-0.421875 -1.015625,-1 H 0.328125 l 0.0625,0.90625 c 0.25,0.21875 0.6875,0.328125 1.09375,0.328125 0.828125,0 1.296875,-0.4375 1.296875,-1.03125 0,-0.609375 -0.375,-0.890625 -1.09375,-1.109375 -0.28125,-0.09375 -0.734375,-0.234375 -0.734375,-0.625 0,-0.359375 0.265625,-0.5625 0.625,-0.5625 0.484375,0 0.734375,0.375 0.78125,0.796875 z m 0,0"
               id="id-451eca57-fda1-4f87-a85d-816db8a20332" />
          </g>
          <g
             transform="translate(243.492,136.259)"
             id="g2485">
            <path
               style="stroke:none"
               d="m 2.265625,-3.140625 v -0.28125 H 1.375 v -0.875 H 1.171875 L 0.75,-3.421875 H 0.21875 v 0.28125 h 0.5 v 2.4375 c 0,0.703125 0.53125,0.78125 0.765625,0.78125 0.359375,0 0.703125,-0.171875 0.90625,-0.296875 L 2.328125,-0.375 C 2.15625,-0.296875 2,-0.28125 1.828125,-0.28125 1.59375,-0.28125 1.375,-0.453125 1.375,-0.96875 v -2.171875 z m 0,0"
               id="id-fc0b0a2d-7781-44a6-af44-75d580985e54" />
          </g>
        </g>
        <g
           style="fill:#000000;fill-opacity:1"
           id="id-44ea4e1b-002b-4888-b2a3-a0693b38c88d">
          <g
             transform="translate(245.881,136.259)"
             id="g2489">
            <path
               style="stroke:none"
               d="m 3.078125,-1.828125 c 0.140625,0 0.28125,-0.046875 0.28125,-0.265625 C 3.359375,-2.515625 3.21875,-3.5 1.9375,-3.5 c -1.078125,0 -1.59375,0.78125 -1.59375,1.828125 0,1.09375 0.46875,1.765625 1.609375,1.75 0.765625,0 1.171875,-0.421875 1.359375,-0.984375 L 3.09375,-1.015625 c -0.1875,0.40625 -0.453125,0.75 -1,0.75 -0.875,0 -1.046875,-0.84375 -1.03125,-1.5625 z m -2,-0.265625 c 0,-0.296875 0.09375,-1.15625 0.828125,-1.15625 0.640625,0 0.71875,0.65625 0.71875,0.921875 0,0.140625 -0.046875,0.234375 -0.234375,0.234375 z m 0,0"
               id="id-413013e2-a4a0-4e94-bf86-b9eade8a26b3" />
          </g>
          <g
             transform="translate(249.462,136.259)"
             id="g2492">
            <path
               style="stroke:none"
               d="m 1.359375,-2.234375 c 0,-0.171875 0.015625,-0.28125 0.078125,-0.40625 0.171875,-0.3125 0.46875,-0.484375 0.828125,-0.484375 0.28125,0 0.90625,0.1875 0.90625,1.390625 0,1.015625 -0.328125,1.578125 -1.015625,1.578125 -0.359375,0 -0.640625,-0.1875 -0.75,-0.515625 C 1.359375,-0.796875 1.359375,-0.9375 1.359375,-1.09375 Z m -1.15625,-1.09375 v 0.171875 l 0.265625,0.046875 c 0.1875,0.015625 0.234375,0.0625 0.234375,0.3125 V 1 c 0,0.359375 -0.046875,0.359375 -0.53125,0.40625 v 0.203125 h 1.8125 V 1.40625 C 1.390625,1.359375 1.359375,1.359375 1.359375,1 V -0.078125 C 1.5,0 1.828125,0.078125 2.140625,0.078125 c 0.953125,0 1.75,-0.421875 1.75,-1.859375 0,-0.5 -0.078125,-1.71875 -1.359375,-1.71875 -0.5,0 -0.90625,0.34375 -1.171875,0.515625 L 1.265625,-3.5 Z m 0,0"
               id="id-4ae93d4e-dac3-4e36-a83e-1b4a37a02731" />
          </g>
          <g
             transform="translate(253.697,136.259)"
             id="g2495">
            <path
               style="stroke:none"
               d="m 2.5625,-2.453125 v -0.8125 C 2.328125,-3.421875 1.96875,-3.5 1.65625,-3.5 c -0.75,0 -1.265625,0.359375 -1.265625,1.015625 0,0.578125 0.46875,0.84375 1.046875,1.015625 0.3125,0.09375 0.75,0.25 0.75,0.734375 0,0.34375 -0.265625,0.578125 -0.640625,0.578125 -0.5625,0 -0.875,-0.421875 -1.015625,-1 H 0.328125 l 0.0625,0.90625 c 0.25,0.21875 0.6875,0.328125 1.09375,0.328125 0.828125,0 1.296875,-0.4375 1.296875,-1.03125 0,-0.609375 -0.375,-0.890625 -1.09375,-1.109375 -0.28125,-0.09375 -0.734375,-0.234375 -0.734375,-0.625 0,-0.359375 0.265625,-0.5625 0.625,-0.5625 0.484375,0 0.734375,0.375 0.78125,0.796875 z m 0,0"
               id="id-e1ecf479-45e5-4f1b-afd3-fba259595070" />
          </g>
        </g>
        <g
           style="fill:#000000;fill-opacity:1"
           id="id-44428fdd-baf3-49b7-9ecf-24b800ebc769">
          <g
             transform="translate(258.937,134.765)"
             id="g2499">
            <path
               style="stroke:none"
               d="m 6.515625,-3.328125 0.703125,0.75 -0.6875,0.734375 h -5.875 v 0.53125 h 5.421875 l -0.734375,0.78125 0.203125,0.203125 c 1.046875,-0.9375 2.234375,-1.84375 2.921875,-2.125 V -2.71875 C 7.828125,-2.96875 6.625,-3.875 5.515625,-4.859375 l -0.171875,0.21875 0.71875,0.78125 H 0.65625 v 0.53125 z m 0,0"
               id="id-ec03a215-c925-4034-9364-09c1105387d7" />
          </g>
        </g>
        <g
           style="fill:#000000;fill-opacity:1"
           id="id-b5e2c903-dc8a-4a44-b66d-bab6bcc8888c">
          <g
             transform="translate(270.165,134.765)"
             id="g2503">
            <path
               style="stroke:none"
               d="m 4.734375,-3.140625 c 0,-0.9375 -0.5,-1.46875 -1.34375,-1.46875 -0.671875,0 -1.09375,0.3125 -1.671875,0.703125 V -6.75 l -0.0625,-0.0625 -1.421875,0.234375 v 0.234375 l 0.34375,0.046875 C 0.8125,-6.265625 0.875,-6.21875 0.875,-5.890625 v 5.09375 c 0,0.453125 -0.046875,0.484375 -0.6875,0.53125 V 0 H 2.421875 V -0.265625 C 1.78125,-0.3125 1.734375,-0.34375 1.734375,-0.796875 V -2.9375 c 0,-0.234375 0.015625,-0.359375 0.078125,-0.5 0.203125,-0.375 0.625,-0.671875 1.109375,-0.671875 0.625,0 0.953125,0.34375 0.953125,1.140625 v 2.171875 c 0,0.453125 -0.046875,0.484375 -0.6875,0.53125 V 0 h 2.25 V -0.265625 C 4.796875,-0.3125 4.734375,-0.34375 4.734375,-0.796875 Z m 0,0"
               id="id-6b89df7e-4332-4e8e-97bf-c59d9368860f" />
          </g>
        </g>
        <g
           style="fill:#000000;fill-opacity:1"
           id="id-6e9941da-a492-44d8-a70b-4c2a23993406">
          <g
             transform="translate(275.719,134.765)"
             id="g2507">
            <path
               style="stroke:none"
               d="m 0.34375,-4.375 v 0.234375 L 0.6875,-4.09375 c 0.234375,0.03125 0.296875,0.078125 0.296875,0.40625 v 2.890625 c 0,0.46875 -0.03125,0.484375 -0.6875,0.53125 V 0 H 2.53125 V -0.265625 C 1.875,-0.3125 1.84375,-0.328125 1.84375,-0.796875 v -3.75 l -0.0625,-0.0625 z m 1.0625,-2.1875 c -0.328125,0 -0.5625,0.25 -0.5625,0.578125 0,0.3125 0.234375,0.546875 0.5625,0.546875 0.34375,0 0.546875,-0.234375 0.5625,-0.546875 C 1.96875,-6.3125 1.75,-6.5625 1.40625,-6.5625 Z m 0,0"
               id="id-116a7e92-9a52-4134-97af-3500f727f9cc" />
          </g>
        </g>
        <g
           style="fill:#000000;fill-opacity:1"
           id="id-5a997963-785b-4a58-9c5c-9343d7873c75">
          <g
             transform="translate(278.396,134.765)"
             id="g2511">
            <path
               style="stroke:none"
               d="M 2.984375,-4.125 V -4.5 H 1.8125 V -5.65625 H 1.546875 L 0.984375,-4.5 H 0.28125 v 0.375 H 0.9375 v 3.1875 c 0,0.9375 0.703125,1.046875 1.03125,1.046875 0.46875,0 0.90625,-0.234375 1.171875,-0.40625 L 3.0625,-0.484375 c -0.21875,0.09375 -0.421875,0.125 -0.65625,0.125 -0.3125,0 -0.59375,-0.234375 -0.59375,-0.921875 V -4.125 Z m 0,0"
               id="id-ebc27d76-12e9-4af2-8c5b-40312aea3c06" />
          </g>
        </g>
      </g>
    </g>
    <g
       transform="matrix(0.352778,0,0,0.352778,42.8642,21.694)"
       ns1:version="1.3.0"
       ns1:texconverter="pdflatex"
       ns1:pdfconverter="inkscape"
       ns1:text="$n_\\text{steps}$"
       ns1:preamble="/home/lucasc/Documenten/default_packages.tex"
       ns1:scale="1.0"
       ns1:alignment="middle center"
       ns1:jacobian_sqrt="0.352778"
       id="g1673">
      <defs
         id="id-ba95a2f6-a37f-4693-aa4c-c984ee90c92c">
        <g
           id="id-cddab404-6949-4f7c-abd0-3f79b0a36f87">
          <symbol
             overflow="visible"
             id="id-3baadca5-6349-4850-91a7-08bf0a01f980">
            <path
               style="stroke:none"
               d=""
               id="id-69e4ae83-d964-4496-ad86-2073b434be8e" />
          </symbol>
          <symbol
             overflow="visible"
             id="id-9b462d92-2ded-41f2-8d7f-7a025103aca8">
            <path
               style="stroke:none"
               d="M 1.703125,0 C 1.96875,-0.9375 2.125,-1.4375 2.359375,-2 c 0.34375,-0.78125 1.234375,-2.125 1.96875,-2.125 0.328125,0 0.40625,0.296875 0.296875,0.65625 l -0.78125,2.6875 c -0.140625,0.5 -0.03125,0.890625 0.46875,0.890625 0.6875,0 1.203125,-0.625 1.515625,-1.3125 L 5.609375,-1.34375 C 5.4375,-1.015625 5.03125,-0.359375 4.78125,-0.359375 c -0.1875,0 -0.171875,-0.21875 -0.09375,-0.515625 L 5.40625,-3.28125 C 5.609375,-4 5.5,-4.609375 4.75,-4.609375 3.875,-4.609375 2.921875,-3.625 2.359375,-2.5625 H 2.34375 l 0.59375,-2 -0.046875,-0.046875 -1.6875,0.265625 -0.046875,0.21875 0.5625,0.046875 C 1.9375,-4.0625 1.9375,-3.9375 1.859375,-3.640625 l -0.953125,3.75 z m 0,0"
               id="id-66cb95fd-64dd-45e8-a1b0-d07c643e65d7" />
          </symbol>
          <symbol
             overflow="visible"
             id="id-81c47bb6-6aec-413c-a3c3-416b3f4f91a7">
            <path
               style="stroke:none"
               d=""
               id="id-915c7f35-431f-4b62-80a5-4a03ec46b51a" />
          </symbol>
          <symbol
             overflow="visible"
             id="id-56379b54-62c5-41df-99b4-e44c72bc08ed">
            <path
               style="stroke:none"
               d="m 2.5625,-2.453125 v -0.8125 C 2.328125,-3.421875 1.96875,-3.5 1.65625,-3.5 c -0.75,0 -1.265625,0.359375 -1.265625,1.015625 0,0.578125 0.46875,0.84375 1.046875,1.015625 0.3125,0.09375 0.75,0.25 0.75,0.734375 0,0.34375 -0.265625,0.578125 -0.640625,0.578125 -0.5625,0 -0.875,-0.421875 -1.015625,-1 H 0.328125 l 0.0625,0.90625 c 0.25,0.21875 0.6875,0.328125 1.09375,0.328125 0.828125,0 1.296875,-0.4375 1.296875,-1.03125 0,-0.609375 -0.375,-0.890625 -1.09375,-1.109375 -0.28125,-0.09375 -0.734375,-0.234375 -0.734375,-0.625 0,-0.359375 0.265625,-0.5625 0.625,-0.5625 0.484375,0 0.734375,0.375 0.78125,0.796875 z m 0,0"
               id="id-7ff016a7-e372-4211-ae7e-f918234a4576" />
          </symbol>
          <symbol
             overflow="visible"
             id="id-1443a401-1645-4970-91ad-310a6a2b5d94">
            <path
               style="stroke:none"
               d="m 2.265625,-3.140625 v -0.28125 H 1.375 v -0.875 H 1.171875 L 0.75,-3.421875 H 0.21875 v 0.28125 h 0.5 v 2.4375 c 0,0.703125 0.53125,0.78125 0.765625,0.78125 0.359375,0 0.703125,-0.171875 0.90625,-0.296875 L 2.328125,-0.375 C 2.15625,-0.296875 2,-0.28125 1.828125,-0.28125 1.59375,-0.28125 1.375,-0.453125 1.375,-0.96875 v -2.171875 z m 0,0"
               id="id-03b0fde0-25ce-4c1c-83c3-fa865c747c5a" />
          </symbol>
          <symbol
             overflow="visible"
             id="id-0c273b1b-8562-4234-b355-ccd92dbdf99d">
            <path
               style="stroke:none"
               d="m 3.078125,-1.828125 c 0.140625,0 0.28125,-0.046875 0.28125,-0.265625 C 3.359375,-2.515625 3.21875,-3.5 1.9375,-3.5 c -1.078125,0 -1.59375,0.78125 -1.59375,1.828125 0,1.09375 0.46875,1.765625 1.609375,1.75 0.765625,0 1.171875,-0.421875 1.359375,-0.984375 L 3.09375,-1.015625 c -0.1875,0.40625 -0.453125,0.75 -1,0.75 -0.875,0 -1.046875,-0.84375 -1.03125,-1.5625 z m -2,-0.265625 c 0,-0.296875 0.09375,-1.15625 0.828125,-1.15625 0.640625,0 0.71875,0.65625 0.71875,0.921875 0,0.140625 -0.046875,0.234375 -0.234375,0.234375 z m 0,0"
               id="id-a6003121-32b1-4d60-a239-5971973fc0d6" />
          </symbol>
          <symbol
             overflow="visible"
             id="id-d1416c3d-e22f-4dd2-9b8a-4e541a556d01">
            <path
               style="stroke:none"
               d="m 1.359375,-2.234375 c 0,-0.171875 0.015625,-0.28125 0.078125,-0.40625 0.171875,-0.3125 0.46875,-0.484375 0.828125,-0.484375 0.28125,0 0.90625,0.1875 0.90625,1.390625 0,1.015625 -0.328125,1.578125 -1.015625,1.578125 -0.359375,0 -0.640625,-0.1875 -0.75,-0.515625 C 1.359375,-0.796875 1.359375,-0.9375 1.359375,-1.09375 Z m -1.15625,-1.09375 v 0.171875 l 0.265625,0.046875 c 0.1875,0.015625 0.234375,0.0625 0.234375,0.3125 V 1 c 0,0.359375 -0.046875,0.359375 -0.53125,0.40625 v 0.203125 h 1.8125 V 1.40625 C 1.390625,1.359375 1.359375,1.359375 1.359375,1 V -0.078125 C 1.5,0 1.828125,0.078125 2.140625,0.078125 c 0.953125,0 1.75,-0.421875 1.75,-1.859375 0,-0.5 -0.078125,-1.71875 -1.359375,-1.71875 -0.5,0 -0.90625,0.34375 -1.171875,0.515625 L 1.265625,-3.5 Z m 0,0"
               id="id-e62bc3ca-6c8c-4406-8a8f-2c3121b2e14f" />
          </symbol>
        </g>
      </defs>
      <g
         id="id-7c185cf0-1d3c-454d-bcc9-9b2a41aa6b16"
         transform="translate(-149.618,-130.156)">
        <g
           style="fill:#000000;fill-opacity:1"
           id="id-f1a394d1-9302-4e53-a977-575be4e3b0d0">
          <g
             transform="translate(148.712,134.765)"
             id="g2876">
            <path
               style="stroke:none"
               d="M 1.703125,0 C 1.96875,-0.9375 2.125,-1.4375 2.359375,-2 c 0.34375,-0.78125 1.234375,-2.125 1.96875,-2.125 0.328125,0 0.40625,0.296875 0.296875,0.65625 l -0.78125,2.6875 c -0.140625,0.5 -0.03125,0.890625 0.46875,0.890625 0.6875,0 1.203125,-0.625 1.515625,-1.3125 L 5.609375,-1.34375 C 5.4375,-1.015625 5.03125,-0.359375 4.78125,-0.359375 c -0.1875,0 -0.171875,-0.21875 -0.09375,-0.515625 L 5.40625,-3.28125 C 5.609375,-4 5.5,-4.609375 4.75,-4.609375 3.875,-4.609375 2.921875,-3.625 2.359375,-2.5625 H 2.34375 l 0.59375,-2 -0.046875,-0.046875 -1.6875,0.265625 -0.046875,0.21875 0.5625,0.046875 C 1.9375,-4.0625 1.9375,-3.9375 1.859375,-3.640625 l -0.953125,3.75 z m 0,0"
               id="id-23ab5eea-00b3-407d-868a-35f38df88b9a" />
          </g>
        </g>
        <g
           style="fill:#000000;fill-opacity:1"
           id="id-daf1eefb-ce03-409a-96e6-c6d4a733c88f">
          <g
             transform="translate(154.68,136.259)"
             id="g2880">
            <path
               style="stroke:none"
               d="m 2.5625,-2.453125 v -0.8125 C 2.328125,-3.421875 1.96875,-3.5 1.65625,-3.5 c -0.75,0 -1.265625,0.359375 -1.265625,1.015625 0,0.578125 0.46875,0.84375 1.046875,1.015625 0.3125,0.09375 0.75,0.25 0.75,0.734375 0,0.34375 -0.265625,0.578125 -0.640625,0.578125 -0.5625,0 -0.875,-0.421875 -1.015625,-1 H 0.328125 l 0.0625,0.90625 c 0.25,0.21875 0.6875,0.328125 1.09375,0.328125 0.828125,0 1.296875,-0.4375 1.296875,-1.03125 0,-0.609375 -0.375,-0.890625 -1.09375,-1.109375 -0.28125,-0.09375 -0.734375,-0.234375 -0.734375,-0.625 0,-0.359375 0.265625,-0.5625 0.625,-0.5625 0.484375,0 0.734375,0.375 0.78125,0.796875 z m 0,0"
               id="id-0bb5b3d9-3708-4e97-bd3c-c8167d4342f9" />
          </g>
          <g
             transform="translate(157.717,136.259)"
             id="g2883">
            <path
               style="stroke:none"
               d="m 2.265625,-3.140625 v -0.28125 H 1.375 v -0.875 H 1.171875 L 0.75,-3.421875 H 0.21875 v 0.28125 h 0.5 v 2.4375 c 0,0.703125 0.53125,0.78125 0.765625,0.78125 0.359375,0 0.703125,-0.171875 0.90625,-0.296875 L 2.328125,-0.375 C 2.15625,-0.296875 2,-0.28125 1.828125,-0.28125 1.59375,-0.28125 1.375,-0.453125 1.375,-0.96875 v -2.171875 z m 0,0"
               id="id-4f098255-033d-42f5-9246-8383479688cc" />
          </g>
        </g>
        <g
           style="fill:#000000;fill-opacity:1"
           id="id-364f6d6a-6b00-4e95-85a9-618b5de38834">
          <g
             transform="translate(160.106,136.259)"
             id="g2887">
            <path
               style="stroke:none"
               d="m 3.078125,-1.828125 c 0.140625,0 0.28125,-0.046875 0.28125,-0.265625 C 3.359375,-2.515625 3.21875,-3.5 1.9375,-3.5 c -1.078125,0 -1.59375,0.78125 -1.59375,1.828125 0,1.09375 0.46875,1.765625 1.609375,1.75 0.765625,0 1.171875,-0.421875 1.359375,-0.984375 L 3.09375,-1.015625 c -0.1875,0.40625 -0.453125,0.75 -1,0.75 -0.875,0 -1.046875,-0.84375 -1.03125,-1.5625 z m -2,-0.265625 c 0,-0.296875 0.09375,-1.15625 0.828125,-1.15625 0.640625,0 0.71875,0.65625 0.71875,0.921875 0,0.140625 -0.046875,0.234375 -0.234375,0.234375 z m 0,0"
               id="id-153b3ea0-5fd9-475b-9153-1f8d1a159c28" />
          </g>
          <g
             transform="translate(163.687,136.259)"
             id="g2890">
            <path
               style="stroke:none"
               d="m 1.359375,-2.234375 c 0,-0.171875 0.015625,-0.28125 0.078125,-0.40625 0.171875,-0.3125 0.46875,-0.484375 0.828125,-0.484375 0.28125,0 0.90625,0.1875 0.90625,1.390625 0,1.015625 -0.328125,1.578125 -1.015625,1.578125 -0.359375,0 -0.640625,-0.1875 -0.75,-0.515625 C 1.359375,-0.796875 1.359375,-0.9375 1.359375,-1.09375 Z m -1.15625,-1.09375 v 0.171875 l 0.265625,0.046875 c 0.1875,0.015625 0.234375,0.0625 0.234375,0.3125 V 1 c 0,0.359375 -0.046875,0.359375 -0.53125,0.40625 v 0.203125 h 1.8125 V 1.40625 C 1.390625,1.359375 1.359375,1.359375 1.359375,1 V -0.078125 C 1.5,0 1.828125,0.078125 2.140625,0.078125 c 0.953125,0 1.75,-0.421875 1.75,-1.859375 0,-0.5 -0.078125,-1.71875 -1.359375,-1.71875 -0.5,0 -0.90625,0.34375 -1.171875,0.515625 L 1.265625,-3.5 Z m 0,0"
               id="id-10f9a9ba-b6b9-41d1-87ca-a58dec3205e9" />
          </g>
          <g
             transform="translate(167.922,136.259)"
             id="g2893">
            <path
               style="stroke:none"
               d="m 2.5625,-2.453125 v -0.8125 C 2.328125,-3.421875 1.96875,-3.5 1.65625,-3.5 c -0.75,0 -1.265625,0.359375 -1.265625,1.015625 0,0.578125 0.46875,0.84375 1.046875,1.015625 0.3125,0.09375 0.75,0.25 0.75,0.734375 0,0.34375 -0.265625,0.578125 -0.640625,0.578125 -0.5625,0 -0.875,-0.421875 -1.015625,-1 H 0.328125 l 0.0625,0.90625 c 0.25,0.21875 0.6875,0.328125 1.09375,0.328125 0.828125,0 1.296875,-0.4375 1.296875,-1.03125 0,-0.609375 -0.375,-0.890625 -1.09375,-1.109375 -0.28125,-0.09375 -0.734375,-0.234375 -0.734375,-0.625 0,-0.359375 0.265625,-0.5625 0.625,-0.5625 0.484375,0 0.734375,0.375 0.78125,0.796875 z m 0,0"
               id="id-008441c1-6e0f-45bb-8d71-f30ce55e13dd" />
          </g>
        </g>
      </g>
    </g>
    <g
       transform="matrix(0.458612,0,0,0.458612,49.086046,32.303645)"
       ns1:version="1.3.0"
       ns1:texconverter="pdflatex"
       ns1:pdfconverter="inkscape"
       ns1:text="epochs"
       ns1:preamble="/home/lucasc/Documenten/default_packages.tex"
       ns1:scale="1.3"
       ns1:alignment="middle center"
       ns1:inkscapeversion="1.0.2"
       ns1:jacobian_sqrt="0.458612"
       id="g1366">
      <defs
         id="id-5f7ddc0c-9d65-4e86-bea4-4c845a1ef958">
        <g
           id="id-761e9b65-3c20-4f4a-b8d0-afdba8386b87">
          <symbol
             overflow="visible"
             id="id-90c3c5d1-3d2d-448e-84ef-e98da1f59c81">
            <path
               style="stroke:none"
               d=""
               id="id-8e593d47-a711-4663-9cc5-482c2150f556" />
          </symbol>
          <symbol
             overflow="visible"
             id="id-f9607b8a-92a6-402d-9ec9-6c898dae4c01">
            <path
               style="stroke:none"
               d="m 4.046875,-2.40625 c 0.1875,0 0.359375,-0.046875 0.359375,-0.359375 0,-0.53125 -0.171875,-1.84375 -1.84375,-1.84375 -1.4375,0 -2.109375,1.015625 -2.109375,2.40625 0,1.4375 0.625,2.328125 2.109375,2.3125 1.03125,-0.015625 1.546875,-0.5625 1.796875,-1.296875 l -0.28125,-0.140625 c -0.25,0.53125 -0.609375,0.96875 -1.328125,0.96875 -1.140625,0 -1.359375,-1.09375 -1.34375,-2.046875 z M 1.40625,-2.765625 c 0,-0.375 0.140625,-1.515625 1.09375,-1.515625 0.859375,0 0.953125,0.875 0.953125,1.234375 0,0.171875 -0.046875,0.28125 -0.3125,0.28125 z m 0,0"
               id="id-a5d3edf8-d916-4317-9e1c-3a0e3b920c81" />
          </symbol>
          <symbol
             overflow="visible"
             id="id-3680f91a-5f23-4d79-8278-b4ee93c26a6f">
            <path
               style="stroke:none"
               d="m 1.78125,-2.9375 c 0,-0.234375 0.03125,-0.359375 0.125,-0.53125 0.203125,-0.421875 0.59375,-0.640625 1.078125,-0.640625 0.375,0 1.1875,0.234375 1.1875,1.8125 0,1.359375 -0.421875,2.078125 -1.34375,2.078125 -0.46875,0 -0.84375,-0.234375 -0.984375,-0.65625 -0.0625,-0.171875 -0.0625,-0.359375 -0.0625,-0.5625 z m -1.5,-1.4375 v 0.234375 L 0.625,-4.09375 c 0.234375,0.03125 0.296875,0.078125 0.296875,0.40625 v 5 c 0,0.46875 -0.046875,0.484375 -0.6875,0.53125 v 0.265625 h 2.375 V 1.84375 C 1.828125,1.796875 1.78125,1.78125 1.78125,1.3125 v -1.40625 c 0.1875,0.109375 0.625,0.203125 1.046875,0.203125 1.234375,0 2.296875,-0.5625 2.296875,-2.453125 0,-0.65625 -0.109375,-2.265625 -1.78125,-2.265625 -0.671875,0 -1.203125,0.453125 -1.5625,0.6875 l -0.125,-0.6875 z m 0,0"
               id="id-4100ba8a-d5f7-49d3-bc15-1a4363db46cd" />
          </symbol>
          <symbol
             overflow="visible"
             id="id-4ce0fa49-d023-4fb5-8b89-baaf92707efc">
            <path
               style="stroke:none"
               d="m 2.640625,-4.609375 c -1.46875,0 -2.1875,0.875 -2.1875,2.359375 0,1.484375 0.71875,2.359375 2.1875,2.359375 1.484375,0 2.203125,-0.875 2.203125,-2.359375 0,-1.484375 -0.71875,-2.359375 -2.203125,-2.359375 z M 1.40625,-2.25 c 0,-1.265625 0.40625,-2.03125 1.234375,-2.03125 0.859375,0 1.25,0.765625 1.25,2.03125 0,1.265625 -0.390625,2.03125 -1.25,2.03125 C 1.8125,-0.21875 1.40625,-0.984375 1.40625,-2.25 Z m 0,0"
               id="id-2b0c5cc9-668b-435b-bb79-216d5a706b66" />
          </symbol>
          <symbol
             overflow="visible"
             id="id-7de6e3fe-82f3-46a5-aa83-1ef9bc25bd23">
            <path
               style="stroke:none"
               d="m 2.75,-0.359375 c -1.09375,0 -1.34375,-1.140625 -1.34375,-2 0,-1.375 0.53125,-1.921875 1.171875,-1.921875 0.421875,0 0.6875,0.296875 0.875,0.796875 C 3.5,-3.34375 3.5625,-3.25 3.734375,-3.25 c 0.1875,0 0.546875,-0.109375 0.546875,-0.46875 0,-0.421875 -0.609375,-0.890625 -1.609375,-0.890625 -1.65625,0 -2.21875,1.1875 -2.21875,2.40625 0,1.53125 0.75,2.3125 2.125,2.3125 0.640625,0 1.5,-0.34375 1.765625,-1.3125 L 4.078125,-1.34375 C 3.78125,-0.703125 3.421875,-0.359375 2.75,-0.359375 Z m 0,0"
               id="id-c948f730-03ef-434f-8def-1ce10fced63b" />
          </symbol>
          <symbol
             overflow="visible"
             id="id-60a18865-8d57-4d2c-8950-7127130bef0c">
            <path
               style="stroke:none"
               d="m 4.734375,-3.140625 c 0,-0.9375 -0.5,-1.46875 -1.34375,-1.46875 -0.671875,0 -1.09375,0.3125 -1.671875,0.703125 V -6.75 l -0.0625,-0.0625 -1.421875,0.234375 v 0.234375 l 0.34375,0.046875 C 0.8125,-6.265625 0.875,-6.21875 0.875,-5.890625 v 5.09375 c 0,0.453125 -0.046875,0.484375 -0.6875,0.53125 V 0 H 2.421875 V -0.265625 C 1.78125,-0.3125 1.734375,-0.34375 1.734375,-0.796875 V -2.9375 c 0,-0.234375 0.015625,-0.359375 0.078125,-0.5 0.203125,-0.375 0.625,-0.671875 1.109375,-0.671875 0.625,0 0.953125,0.34375 0.953125,1.140625 v 2.171875 c 0,0.453125 -0.046875,0.484375 -0.6875,0.53125 V 0 h 2.25 V -0.265625 C 4.796875,-0.3125 4.734375,-0.34375 4.734375,-0.796875 Z m 0,0"
               id="id-d88ed3fa-d523-4375-9018-ccd919ae673b" />
          </symbol>
          <symbol
             overflow="visible"
             id="id-c21f4237-ec31-44db-828c-21798b82be6e">
            <path
               style="stroke:none"
               d="M 3.359375,-3.21875 V -4.296875 C 3.0625,-4.515625 2.59375,-4.609375 2.1875,-4.609375 c -1,0 -1.671875,0.46875 -1.671875,1.34375 0,0.765625 0.625,1.09375 1.390625,1.328125 0.40625,0.125 0.984375,0.34375 0.984375,0.96875 0,0.46875 -0.375,0.75 -0.859375,0.75 -0.734375,0 -1.15625,-0.53125 -1.328125,-1.3125 H 0.4375 l 0.078125,1.203125 c 0.34375,0.296875 0.890625,0.4375 1.4375,0.4375 1.09375,0 1.71875,-0.578125 1.71875,-1.359375 0,-0.796875 -0.5,-1.171875 -1.4375,-1.46875 C 1.859375,-2.828125 1.25,-3.03125 1.25,-3.546875 c 0,-0.46875 0.359375,-0.734375 0.828125,-0.734375 0.640625,0 0.953125,0.5 1.015625,1.0625 z m 0,0"
               id="id-632cbf0b-be46-4364-a7de-3b5be08c7e01" />
          </symbol>
        </g>
      </defs>
      <g
         id="id-2ce9f668-a7f4-4c2f-85f5-7062e9a168fb"
         transform="translate(-149.165,-127.953)">
        <g
           style="fill:#000000;fill-opacity:1"
           id="id-18a5677f-d79b-4e0e-9961-0394fa8528da">
          <g
             transform="translate(148.712,134.765)"
             id="g4142">
            <path
               style="stroke:none"
               d="m 4.046875,-2.40625 c 0.1875,0 0.359375,-0.046875 0.359375,-0.359375 0,-0.53125 -0.171875,-1.84375 -1.84375,-1.84375 -1.4375,0 -2.109375,1.015625 -2.109375,2.40625 0,1.4375 0.625,2.328125 2.109375,2.3125 1.03125,-0.015625 1.546875,-0.5625 1.796875,-1.296875 l -0.28125,-0.140625 c -0.25,0.53125 -0.609375,0.96875 -1.328125,0.96875 -1.140625,0 -1.359375,-1.09375 -1.34375,-2.046875 z M 1.40625,-2.765625 c 0,-0.375 0.140625,-1.515625 1.09375,-1.515625 0.859375,0 0.953125,0.875 0.953125,1.234375 0,0.171875 -0.046875,0.28125 -0.3125,0.28125 z m 0,0"
               id="id-e5b6ff67-2903-4877-9dc0-396d68424f5e" />
          </g>
          <g
             transform="translate(153.423,134.765)"
             id="g4145">
            <path
               style="stroke:none"
               d="m 1.78125,-2.9375 c 0,-0.234375 0.03125,-0.359375 0.125,-0.53125 0.203125,-0.421875 0.59375,-0.640625 1.078125,-0.640625 0.375,0 1.1875,0.234375 1.1875,1.8125 0,1.359375 -0.421875,2.078125 -1.34375,2.078125 -0.46875,0 -0.84375,-0.234375 -0.984375,-0.65625 -0.0625,-0.171875 -0.0625,-0.359375 -0.0625,-0.5625 z m -1.5,-1.4375 v 0.234375 L 0.625,-4.09375 c 0.234375,0.03125 0.296875,0.078125 0.296875,0.40625 v 5 c 0,0.46875 -0.046875,0.484375 -0.6875,0.53125 v 0.265625 h 2.375 V 1.84375 C 1.828125,1.796875 1.78125,1.78125 1.78125,1.3125 v -1.40625 c 0.1875,0.109375 0.625,0.203125 1.046875,0.203125 1.234375,0 2.296875,-0.5625 2.296875,-2.453125 0,-0.65625 -0.109375,-2.265625 -1.78125,-2.265625 -0.671875,0 -1.203125,0.453125 -1.5625,0.6875 l -0.125,-0.6875 z m 0,0"
               id="id-22b28811-140d-4a12-99c3-2180c3eec523" />
          </g>
          <g
             transform="translate(158.996,134.765)"
             id="g4148">
            <path
               style="stroke:none"
               d="m 2.640625,-4.609375 c -1.46875,0 -2.1875,0.875 -2.1875,2.359375 0,1.484375 0.71875,2.359375 2.1875,2.359375 1.484375,0 2.203125,-0.875 2.203125,-2.359375 0,-1.484375 -0.71875,-2.359375 -2.203125,-2.359375 z M 1.40625,-2.25 c 0,-1.265625 0.40625,-2.03125 1.234375,-2.03125 0.859375,0 1.25,0.765625 1.25,2.03125 0,1.265625 -0.390625,2.03125 -1.25,2.03125 C 1.8125,-0.21875 1.40625,-0.984375 1.40625,-2.25 Z m 0,0"
               id="id-693533d4-1414-4b12-9dde-9f682193c02c" />
          </g>
          <g
             transform="translate(164.284,134.765)"
             id="g4151">
            <path
               style="stroke:none"
               d="m 2.75,-0.359375 c -1.09375,0 -1.34375,-1.140625 -1.34375,-2 0,-1.375 0.53125,-1.921875 1.171875,-1.921875 0.421875,0 0.6875,0.296875 0.875,0.796875 C 3.5,-3.34375 3.5625,-3.25 3.734375,-3.25 c 0.1875,0 0.546875,-0.109375 0.546875,-0.46875 0,-0.421875 -0.609375,-0.890625 -1.609375,-0.890625 -1.65625,0 -2.21875,1.1875 -2.21875,2.40625 0,1.53125 0.75,2.3125 2.125,2.3125 0.640625,0 1.5,-0.34375 1.765625,-1.3125 L 4.078125,-1.34375 C 3.78125,-0.703125 3.421875,-0.359375 2.75,-0.359375 Z m 0,0"
               id="id-4fdf597f-39e9-4eb4-9997-1c1a1d219b17" />
          </g>
          <g
             transform="translate(168.83,134.765)"
             id="g4154">
            <path
               style="stroke:none"
               d="m 4.734375,-3.140625 c 0,-0.9375 -0.5,-1.46875 -1.34375,-1.46875 -0.671875,0 -1.09375,0.3125 -1.671875,0.703125 V -6.75 l -0.0625,-0.0625 -1.421875,0.234375 v 0.234375 l 0.34375,0.046875 C 0.8125,-6.265625 0.875,-6.21875 0.875,-5.890625 v 5.09375 c 0,0.453125 -0.046875,0.484375 -0.6875,0.53125 V 0 H 2.421875 V -0.265625 C 1.78125,-0.3125 1.734375,-0.34375 1.734375,-0.796875 V -2.9375 c 0,-0.234375 0.015625,-0.359375 0.078125,-0.5 0.203125,-0.375 0.625,-0.671875 1.109375,-0.671875 0.625,0 0.953125,0.34375 0.953125,1.140625 v 2.171875 c 0,0.453125 -0.046875,0.484375 -0.6875,0.53125 V 0 h 2.25 V -0.265625 C 4.796875,-0.3125 4.734375,-0.34375 4.734375,-0.796875 Z m 0,0"
               id="id-058d756c-fe99-4151-a642-12b4f50a4d00" />
          </g>
        </g>
        <g
           style="fill:#000000;fill-opacity:1"
           id="id-c7574a78-dd72-4c03-b817-60996e37b045">
          <g
             transform="translate(174.385,134.765)"
             id="g4158">
            <path
               style="stroke:none"
               d="M 3.359375,-3.21875 V -4.296875 C 3.0625,-4.515625 2.59375,-4.609375 2.1875,-4.609375 c -1,0 -1.671875,0.46875 -1.671875,1.34375 0,0.765625 0.625,1.09375 1.390625,1.328125 0.40625,0.125 0.984375,0.34375 0.984375,0.96875 0,0.46875 -0.375,0.75 -0.859375,0.75 -0.734375,0 -1.15625,-0.53125 -1.328125,-1.3125 H 0.4375 l 0.078125,1.203125 c 0.34375,0.296875 0.890625,0.4375 1.4375,0.4375 1.09375,0 1.71875,-0.578125 1.71875,-1.359375 0,-0.796875 -0.5,-1.171875 -1.4375,-1.46875 C 1.859375,-2.828125 1.25,-3.03125 1.25,-3.546875 c 0,-0.46875 0.359375,-0.734375 0.828125,-0.734375 0.640625,0 0.953125,0.5 1.015625,1.0625 z m 0,0"
               id="id-f346d945-3b45-4e0c-8c25-96e2299008ce" />
          </g>
        </g>
      </g>
    </g>
  </g>
</svg>
